<svg width="24" height="24" viewBox="0 0 24 24" fill="none" xmlns="http://www.w3.org/2000/svg">
<g id="events" clip-path="url(#clip0_27_37350)">
<path id="Vector" d="M15.3928 13.3948H16.416C16.6956 13.3945 16.9637 13.2833 17.1614 13.0855C17.3591 12.8878 17.4703 12.6197 17.4706 12.3401V11.3284C17.4703 11.0487 17.3591 10.7807 17.1614 10.5829C16.9637 10.3852 16.6956 10.274 16.416 10.2737H15.3928C15.1132 10.274 14.8451 10.3852 14.6474 10.5829C14.4497 10.7807 14.3384 11.0487 14.3381 11.3284V12.3401C14.3384 12.6197 14.4497 12.8878 14.6474 13.0855C14.8451 13.2833 15.1132 13.3945 15.3928 13.3948ZM15.0412 11.3284C15.0413 11.2352 15.0784 11.1458 15.1443 11.0799C15.2102 11.014 15.2996 10.9769 15.3928 10.9768H16.416C16.5092 10.9769 16.5985 11.014 16.6644 11.0799C16.7303 11.1458 16.7674 11.2352 16.7675 11.3284V12.3401C16.7674 12.4333 16.7303 12.5227 16.6644 12.5886C16.5985 12.6545 16.5092 12.6916 16.416 12.6917H15.3928C15.2996 12.6916 15.2102 12.6545 15.1443 12.5886C15.0784 12.5227 15.0413 12.4333 15.0412 12.3401V11.3284ZM19.2972 22.1169H20.3203C20.5999 22.1166 20.868 22.0054 21.0657 21.8077C21.2635 21.61 21.3747 21.3419 21.375 21.0623V20.0505C21.3747 19.7709 21.2635 19.5028 21.0657 19.3051C20.868 19.1074 20.5999 18.9961 20.3203 18.9958H19.2972C19.0175 18.9961 18.7495 19.1074 18.5517 19.3051C18.354 19.5028 18.2428 19.7709 18.2425 20.0505V21.0623C18.2428 21.3419 18.354 21.61 18.5517 21.8077C18.7495 22.0054 19.0175 22.1166 19.2972 22.1169ZM18.9456 20.0505C18.9457 19.9573 18.9828 19.8679 19.0487 19.802C19.1146 19.7361 19.204 19.699 19.2972 19.6989H20.3203C20.4135 19.699 20.5029 19.7361 20.5688 19.802C20.6347 19.8679 20.6718 19.9573 20.6719 20.0505V21.0623C20.6718 21.1555 20.6347 21.2448 20.5688 21.3107C20.5029 21.3766 20.4135 21.4137 20.3203 21.4138H19.2972C19.204 21.4137 19.1146 21.3766 19.0487 21.3107C18.9828 21.2448 18.9457 21.1555 18.9456 21.0623L18.9456 20.0505ZM17.3332 14.7108C17.2551 14.6598 17.16 14.6418 17.0688 14.6609C16.9775 14.68 16.8976 14.7346 16.8465 14.8126L15.5269 16.8306L14.9504 16.1934C14.8878 16.1243 14.8004 16.0828 14.7073 16.0781C14.6141 16.0735 14.523 16.106 14.4538 16.1685C14.3847 16.2311 14.3432 16.3185 14.3386 16.4117C14.3339 16.5048 14.3664 16.5959 14.429 16.6651L15.3111 17.6402C15.344 17.6766 15.3843 17.7057 15.4292 17.7256C15.4741 17.7456 15.5226 17.7559 15.5717 17.7559C15.5809 17.7559 15.5901 17.7555 15.5992 17.7548C15.6528 17.7506 15.7047 17.7342 15.751 17.7068C15.7973 17.6794 15.8366 17.6417 15.866 17.5967L17.435 15.1974C17.486 15.1194 17.504 15.0243 17.4849 14.933C17.4658 14.8418 17.4112 14.7618 17.3332 14.7108ZM19.2972 13.3948H20.3203C20.5999 13.3945 20.868 13.2833 21.0657 13.0855C21.2635 12.8878 21.3747 12.6197 21.375 12.3401V11.3284C21.3747 11.0487 21.2635 10.7807 21.0657 10.5829C20.868 10.3852 20.5999 10.274 20.3203 10.2737H19.2972C19.0175 10.274 18.7495 10.3852 18.5517 10.5829C18.354 10.7807 18.2428 11.0487 18.2425 11.3284V12.3401C18.2428 12.6197 18.354 12.8878 18.5517 13.0855C18.7495 13.2833 19.0175 13.3945 19.2972 13.3948ZM18.9456 11.3284C18.9457 11.2352 18.9828 11.1458 19.0487 11.0799C19.1146 11.014 19.204 10.9769 19.2972 10.9768H20.3203C20.4135 10.9769 20.5029 11.014 20.5688 11.0799C20.6347 11.1458 20.6718 11.2352 20.6719 11.3284V12.3401C20.6718 12.4333 20.6347 12.5227 20.5688 12.5886C20.5029 12.6545 20.4135 12.6916 20.3203 12.6917H19.2972C19.204 12.6916 19.1146 12.6545 19.0487 12.5886C18.9828 12.5227 18.9457 12.4333 18.9456 12.3401V11.3284ZM19.2972 17.7559H20.3203C20.5999 17.7556 20.868 17.6443 21.0657 17.4466C21.2635 17.2489 21.3747 16.9808 21.375 16.7012V15.6894C21.3747 15.4098 21.2635 15.1417 21.0657 14.944C20.868 14.7463 20.5999 14.6351 20.3203 14.6348H19.2972C19.0175 14.6351 18.7495 14.7463 18.5517 14.944C18.354 15.1417 18.2428 15.4098 18.2425 15.6894V16.7012C18.2428 16.9808 18.354 17.2489 18.5517 17.4466C18.7495 17.6443 19.0175 17.7556 19.2972 17.7559ZM18.9456 15.6894C18.9457 15.5962 18.9828 15.5069 19.0487 15.441C19.1146 15.375 19.204 15.338 19.2972 15.3379H20.3203C20.4135 15.338 20.5029 15.375 20.5688 15.441C20.6347 15.5069 20.6718 15.5962 20.6719 15.6894V16.7012C20.6718 16.7944 20.6347 16.8838 20.5688 16.9497C20.5029 17.0156 20.4135 17.0526 20.3203 17.0527H19.2972C19.204 17.0526 19.1146 17.0156 19.0487 16.9497C18.9828 16.8838 18.9457 16.7944 18.9456 16.7012V15.6894ZM11.4884 22.1169H12.5116C12.7912 22.1166 13.0593 22.0054 13.257 21.8077C13.4547 21.61 13.5659 21.3419 13.5662 21.0623V20.0505C13.5659 19.7709 13.4547 19.5028 13.257 19.3051C13.0593 19.1074 12.7912 18.9961 12.5116 18.9958H11.4884C11.2088 18.9961 10.9407 19.1074 10.743 19.3051C10.5453 19.5028 10.4341 19.7709 10.4338 20.0505V21.0623C10.4341 21.3419 10.5453 21.61 10.743 21.8077C10.9407 22.0054 11.2088 22.1166 11.4884 22.1169ZM11.1369 20.0505C11.137 19.9573 11.1741 19.8679 11.24 19.802C11.3059 19.7361 11.3952 19.699 11.4884 19.6989H12.5116C12.6048 19.699 12.6941 19.7361 12.76 19.802C12.8259 19.8679 12.863 19.9573 12.8631 20.0505V21.0623C12.863 21.1555 12.8259 21.2448 12.76 21.3107C12.6941 21.3766 12.6048 21.4137 12.5116 21.4138H11.4884C11.3952 21.4137 11.3059 21.3766 11.24 21.3107C11.1741 21.2448 11.137 21.1555 11.1369 21.0623V20.0505ZM3.67969 17.7559H4.70284C4.98246 17.7556 5.25053 17.6443 5.44826 17.4466C5.64598 17.2489 5.7572 16.9808 5.75752 16.7012V15.6894C5.7572 15.4098 5.64598 15.1417 5.44826 14.944C5.25053 14.7463 4.98246 14.6351 4.70284 14.6348H3.67969C3.40007 14.6351 3.13199 14.7463 2.93427 14.944C2.73654 15.1417 2.62532 15.4098 2.625 15.6894V16.7012C2.62532 16.9808 2.73654 17.2489 2.93427 17.4466C3.13199 17.6443 3.40007 17.7556 3.67969 17.7559ZM3.32812 15.6894C3.32823 15.5962 3.3653 15.5069 3.43121 15.441C3.49712 15.375 3.58648 15.338 3.67969 15.3379H4.70284C4.79604 15.338 4.88541 15.375 4.95131 15.441C5.01722 15.5069 5.0543 15.5962 5.0544 15.6894V16.7012C5.0543 16.7944 5.01722 16.8838 4.95131 16.9497C4.88541 17.0156 4.79604 17.0526 4.70284 17.0527H3.67969C3.58648 17.0526 3.49712 17.0156 3.43121 16.9497C3.3653 16.8838 3.32823 16.7944 3.32812 16.7012V15.6894ZM3.67969 13.3948H4.70284C4.98246 13.3945 5.25053 13.2833 5.44826 13.0855C5.64598 12.8878 5.7572 12.6197 5.75752 12.3401V11.3284C5.7572 11.0487 5.64598 10.7807 5.44826 10.5829C5.25054 10.3852 4.98246 10.274 4.70284 10.2737H3.67969C3.40007 10.274 3.13199 10.3852 2.93426 10.5829C2.73654 10.7807 2.62532 11.0487 2.625 11.3284V12.3401C2.62532 12.6197 2.73654 12.8878 2.93426 13.0855C3.13199 13.2833 3.40007 13.3945 3.67969 13.3948ZM3.32812 11.3284C3.32823 11.2352 3.3653 11.1458 3.43121 11.0799C3.49712 11.014 3.58648 10.9769 3.67969 10.9768H4.70284C4.79604 10.9769 4.88541 11.014 4.95131 11.0799C5.01722 11.1458 5.0543 11.2352 5.0544 11.3284V12.3401C5.0543 12.4333 5.01722 12.5227 4.95131 12.5886C4.88541 12.6545 4.79604 12.6916 4.70284 12.6917H3.67969C3.58648 12.6916 3.49712 12.6545 3.43121 12.5886C3.3653 12.5227 3.32823 12.4333 3.32812 12.3401V11.3284ZM3.67969 22.1169H4.70284C4.98246 22.1166 5.25054 22.0054 5.44826 21.8077C5.64598 21.61 5.7572 21.3419 5.75752 21.0623V20.0505C5.7572 19.7709 5.64598 19.5028 5.44826 19.3051C5.25053 19.1074 4.98246 18.9961 4.70284 18.9958H3.67969C3.40007 18.9961 3.13199 19.1074 2.93427 19.3051C2.73654 19.5028 2.62532 19.7709 2.625 20.0505V21.0623C2.62532 21.3419 2.73654 21.61 2.93426 21.8077C3.13199 22.0054 3.40007 22.1166 3.67969 22.1169ZM3.32812 20.0505C3.32823 19.9573 3.3653 19.8679 3.43121 19.802C3.49712 19.7361 3.58648 19.699 3.67969 19.6989H4.70284C4.79604 19.699 4.88541 19.7361 4.95131 19.802C5.01722 19.8679 5.0543 19.9573 5.0544 20.0505V21.0623C5.0543 21.1555 5.01722 21.2448 4.95131 21.3107C4.88541 21.3766 4.79604 21.4137 4.70284 21.4138H3.67969C3.58648 21.4137 3.49712 21.3766 3.43121 21.3107C3.3653 21.2448 3.32823 21.1555 3.32812 21.0623V20.0505ZM15.3928 22.1169H16.416C16.6956 22.1166 16.9637 22.0054 17.1614 21.8077C17.3591 21.61 17.4703 21.3419 17.4706 21.0623V20.0505C17.4703 19.7709 17.3591 19.5028 17.1614 19.3051C16.9637 19.1074 16.6956 18.9961 16.416 18.9958H15.3928C15.1132 18.9961 14.8451 19.1074 14.6474 19.3051C14.4497 19.5028 14.3384 19.7709 14.3381 20.0505V21.0623C14.3384 21.3419 14.4497 21.61 14.6474 21.8077C14.8451 22.0054 15.1132 22.1166 15.3928 22.1169ZM15.0412 20.0505C15.0413 19.9573 15.0784 19.8679 15.1443 19.802C15.2102 19.7361 15.2996 19.699 15.3928 19.6989H16.416C16.5092 19.699 16.5985 19.7361 16.6644 19.802C16.7303 19.8679 16.7674 19.9573 16.7675 20.0505V21.0623C16.7674 21.1555 16.7303 21.2448 16.6644 21.3107C16.5985 21.3766 16.5092 21.4137 16.416 21.4138H15.3928C15.2996 21.4137 15.2102 21.3766 15.1443 21.3107C15.0784 21.2448 15.0413 21.1555 15.0412 21.0623V20.0505ZM7.58405 22.1169H8.60719C8.88682 22.1166 9.15489 22.0054 9.35262 21.8077C9.55034 21.61 9.66156 21.3419 9.66188 21.0623V20.0505C9.66156 19.7709 9.55034 19.5028 9.35262 19.3051C9.15489 19.1074 8.88682 18.9961 8.60719 18.9958H7.58405C7.30442 18.9961 7.03635 19.1074 6.83862 19.3051C6.6409 19.5028 6.52968 19.7709 6.52936 20.0505V21.0623C6.52968 21.3419 6.6409 21.61 6.83862 21.8077C7.03635 22.0054 7.30442 22.1166 7.58405 22.1169ZM7.23248 20.0505C7.23259 19.9573 7.26966 19.8679 7.33557 19.802C7.40148 19.7361 7.49084 19.699 7.58405 19.6989H8.60719C8.7004 19.699 8.78977 19.7361 8.85567 19.802C8.92158 19.8679 8.95866 19.9573 8.95876 20.0505V21.0623C8.95866 21.1555 8.92158 21.2448 8.85567 21.3107C8.78977 21.3766 8.7004 21.4137 8.60719 21.4138H7.58405C7.49084 21.4137 7.40148 21.3766 7.33557 21.3107C7.26966 21.2448 7.23259 21.1555 7.23248 21.0623V20.0505ZM21.2812 2.48438H21.0234V1.64062C21.0234 1.2055 20.8506 0.788205 20.5429 0.480528C20.2352 0.172851 19.8179 0 19.3828 0C18.9477 0 18.5304 0.172851 18.2227 0.480528C17.915 0.788205 17.7422 1.2055 17.7422 1.64062V2.48438H6.25781V1.64062C6.25781 1.2055 6.08496 0.788205 5.77728 0.480528C5.46961 0.172851 5.05231 2.44472e-08 4.61719 2.44472e-08C4.18207 2.44472e-08 3.76477 0.172851 3.45709 0.480528C3.14941 0.788205 2.97656 1.2055 2.97656 1.64062V2.48438H2.71875C2.12843 2.48504 1.56249 2.71984 1.14507 3.13726C0.727656 3.55468 0.492857 4.12062 0.492188 4.71094V21.7734C0.492857 22.3638 0.727656 22.9297 1.14507 23.3471C1.56249 23.7645 2.12843 23.9993 2.71875 24H21.2812C21.8716 23.9993 22.4375 23.7645 22.8549 23.3471C23.2723 22.9297 23.5071 22.3638 23.5078 21.7734V4.71094C23.5071 4.12062 23.2723 3.55468 22.8549 3.13726C22.4375 2.71984 21.8716 2.48504 21.2812 2.48438ZM18.4453 1.64062C18.4453 1.39198 18.5441 1.15353 18.7199 0.977712C18.8957 0.801897 19.1342 0.703125 19.3828 0.703125C19.6315 0.703125 19.8699 0.801897 20.0457 0.977712C20.2215 1.15353 20.3203 1.39198 20.3203 1.64062V4.96875C20.3203 5.21739 20.2215 5.45585 20.0457 5.63166C19.8699 5.80748 19.6315 5.90625 19.3828 5.90625C19.1342 5.90625 18.8957 5.80748 18.7199 5.63166C18.5441 5.45585 18.4453 5.21739 18.4453 4.96875V1.64062ZM3.67969 1.64062C3.67969 1.39198 3.77846 1.15353 3.95427 0.977712C4.13009 0.801897 4.36855 0.703125 4.61719 0.703125C4.86583 0.703125 5.10428 0.801897 5.2801 0.977712C5.45592 1.15353 5.55469 1.39198 5.55469 1.64062V4.96875C5.55469 5.21739 5.45592 5.45585 5.2801 5.63166C5.10428 5.80748 4.86583 5.90625 4.61719 5.90625C4.36855 5.90625 4.13009 5.80748 3.95427 5.63166C3.77846 5.45585 3.67969 5.21739 3.67969 4.96875V1.64062ZM22.8047 21.7734C22.8042 22.1773 22.6436 22.5646 22.358 22.8502C22.0724 23.1358 21.6852 23.2964 21.2812 23.2969H2.71875C2.31485 23.2964 1.92762 23.1358 1.64202 22.8502C1.35641 22.5646 1.19576 22.1773 1.19531 21.7734V9.09375H22.8047V21.7734ZM22.8047 8.39062H1.19531V4.71094C1.19576 4.30704 1.35641 3.91981 1.64202 3.6342C1.92762 3.3486 2.31485 3.18795 2.71875 3.1875H2.97656V4.96875C2.97656 5.40387 3.14941 5.82117 3.45709 6.12885C3.76477 6.43652 4.18207 6.60938 4.61719 6.60938C5.05231 6.60938 5.46961 6.43652 5.77728 6.12885C6.08496 5.82117 6.25781 5.40387 6.25781 4.96875V3.1875H17.7422V4.96875C17.7422 5.40387 17.915 5.82117 18.2227 6.12885C18.5304 6.43652 18.9477 6.60938 19.3828 6.60938C19.8179 6.60938 20.2352 6.43652 20.5429 6.12885C20.8506 5.82117 21.0234 5.40387 21.0234 4.96875V3.1875H21.2812C21.6852 3.18795 22.0724 3.3486 22.358 3.6342C22.6436 3.91981 22.8042 4.30704 22.8047 4.71094V8.39062ZM7.58405 17.7559H8.60719C8.88682 17.7556 9.15489 17.6443 9.35262 17.4466C9.55034 17.2489 9.66156 16.9808 9.66188 16.7012V15.6894C9.66156 15.4098 9.55034 15.1417 9.35262 14.944C9.15489 14.7463 8.88682 14.6351 8.60719 14.6348H7.58405C7.30442 14.6351 7.03635 14.7463 6.83862 14.944C6.6409 15.1417 6.52968 15.4098 6.52936 15.6894V16.7012C6.52968 16.9808 6.6409 17.2489 6.83862 17.4466C7.03635 17.6443 7.30442 17.7556 7.58405 17.7559ZM7.23248 15.6894C7.23259 15.5962 7.26966 15.5069 7.33557 15.441C7.40148 15.375 7.49084 15.338 7.58405 15.3379H8.60719C8.7004 15.338 8.78977 15.375 8.85567 15.441C8.92158 15.5069 8.95866 15.5962 8.95876 15.6894V16.7012C8.95866 16.7944 8.92158 16.8838 8.85567 16.9497C8.78977 17.0156 8.7004 17.0526 8.60719 17.0527H7.58405C7.49084 17.0526 7.40148 17.0156 7.33557 16.9497C7.26966 16.8838 7.23259 16.7944 7.23248 16.7012V15.6894ZM11.4885 13.3948H12.5116C12.7912 13.3945 13.0593 13.2833 13.257 13.0855C13.4547 12.8878 13.5659 12.6197 13.5662 12.3401V11.3284C13.5659 11.0487 13.4547 10.7807 13.257 10.5829C13.0593 10.3852 12.7912 10.274 12.5116 10.2737H11.4884C11.2088 10.274 10.9407 10.3852 10.743 10.5829C10.5453 10.7807 10.4341 11.0487 10.4338 11.3284V12.3401C10.4341 12.6197 10.5453 12.8878 10.743 13.0855C10.9407 13.2833 11.2088 13.3945 11.4885 13.3948ZM11.1369 11.3284C11.137 11.2352 11.1741 11.1458 11.24 11.0799C11.3059 11.014 11.3952 10.9769 11.4885 10.9768H12.5116C12.6048 10.9769 12.6941 11.014 12.76 11.0799C12.8259 11.1458 12.863 11.2352 12.8631 11.3284V12.3401C12.863 12.4333 12.8259 12.5227 12.76 12.5886C12.6941 12.6545 12.6048 12.6916 12.5116 12.6917H11.4884C11.3952 12.6916 11.3059 12.6545 11.24 12.5886C11.1741 12.5227 11.137 12.4333 11.1369 12.3401L11.1369 11.3284ZM11.4885 17.7559H12.5116C12.7912 17.7556 13.0593 17.6443 13.257 17.4466C13.4547 17.2489 13.5659 16.9808 13.5662 16.7012V15.6894C13.5659 15.4098 13.4547 15.1417 13.257 14.944C13.0593 14.7463 12.7912 14.6351 12.5116 14.6348H11.4884C11.2088 14.6351 10.9407 14.7463 10.743 14.944C10.5453 15.1417 10.4341 15.4098 10.4338 15.6894V16.7012C10.4341 16.9808 10.5453 17.2489 10.743 17.4466C10.9407 17.6443 11.2088 17.7556 11.4885 17.7559ZM11.1369 15.6894C11.137 15.5962 11.1741 15.5069 11.24 15.441C11.3059 15.375 11.3952 15.338 11.4885 15.3379H12.5116C12.6048 15.338 12.6941 15.375 12.76 15.441C12.8259 15.5069 12.863 15.5962 12.8631 15.6894V16.7012C12.863 16.7944 12.8259 16.8838 12.76 16.9497C12.6941 17.0156 12.6048 17.0526 12.5116 17.0527H11.4884C11.3952 17.0526 11.3059 17.0156 11.24 16.9497C11.1741 16.8838 11.137 16.7944 11.1369 16.7012L11.1369 15.6894ZM7.58405 13.3948H8.60719C8.88682 13.3945 9.15489 13.2833 9.35262 13.0855C9.55034 12.8878 9.66156 12.6197 9.66188 12.3401V11.3284C9.66156 11.0487 9.55034 10.7807 9.35262 10.5829C9.15489 10.3852 8.88682 10.274 8.60719 10.2737H7.58405C7.30442 10.274 7.03635 10.3852 6.83862 10.5829C6.6409 10.7807 6.52968 11.0487 6.52936 11.3284V12.3401C6.52968 12.6197 6.6409 12.8878 6.83862 13.0855C7.03635 13.2833 7.30442 13.3945 7.58405 13.3948ZM7.23248 11.3284C7.23259 11.2352 7.26966 11.1458 7.33557 11.0799C7.40148 11.014 7.49084 10.9769 7.58405 10.9768H8.60719C8.7004 10.9769 8.78977 11.014 8.85567 11.0799C8.92158 11.1458 8.95866 11.2352 8.95876 11.3284V12.3401C8.95866 12.4333 8.92158 12.5227 8.85567 12.5886C8.78977 12.6545 8.7004 12.6916 8.60719 12.6917H7.58405C7.49084 12.6916 7.40148 12.6545 7.33557 12.5886C7.26966 12.5227 7.23259 12.4333 7.23248 12.3401V11.3284Z" fill="white"/>
</g>
<defs>
<clipPath id="clip0_27_37350">
<rect width="24" height="24" fill="white"/>
</clipPath>
</defs>
</svg>
