<svg width="24" height="24" viewBox="0 0 24 24" fill="none" xmlns="http://www.w3.org/2000/svg">
<g id="profile">
<g id="Group">
<path id="Vector" d="M11.579 12.056C14.2178 12.056 16.357 9.91682 16.357 7.278C16.357 4.63918 14.2178 2.5 11.579 2.5C8.94021 2.5 6.80103 4.63918 6.80103 7.278C6.80103 9.91682 8.94021 12.056 11.579 12.056Z" stroke="white" stroke-width="1.5" stroke-linecap="round" stroke-linejoin="round"/>
<path id="Vector_2" fill-rule="evenodd" clip-rule="evenodd" d="M4.00002 18.7014C3.99875 18.3655 4.07387 18.0338 4.21971 17.7312C4.67738 16.8158 5.968 16.3307 7.03893 16.111C7.81129 15.9462 8.59432 15.8361 9.38218 15.7815C10.8409 15.6534 12.308 15.6534 13.7666 15.7815C14.5544 15.8367 15.3374 15.9468 16.1099 16.111C17.1808 16.3307 18.4714 16.7701 18.9291 17.7312C19.2224 18.348 19.2224 19.064 18.9291 19.6808C18.4714 20.6419 17.1808 21.0813 16.1099 21.2918C15.3384 21.4635 14.5551 21.5767 13.7666 21.6305C12.5794 21.7311 11.3866 21.7495 10.1968 21.6854C9.92223 21.6854 9.65678 21.6854 9.38218 21.6305C8.59665 21.5773 7.81633 21.4641 7.04809 21.2918C5.968 21.0813 4.68653 20.6419 4.21971 19.6808C4.07461 19.3748 3.99957 19.0402 4.00002 18.7014Z" stroke="white" stroke-width="1.5" stroke-linecap="round" stroke-linejoin="round"/>
</g>
</g>
</svg>
