<svg width="24" height="24" viewBox="0 0 24 24" fill="none" xmlns="http://www.w3.org/2000/svg">
<g id="Ticket">
<g id="Layer_2">
<path id="Vector" d="M19.8375 17.7937H1.1156V14.175H1.4156C2.08123 14.175 2.62498 13.6312 2.62498 12.9656C2.62498 12.3 2.08123 11.7562 1.4156 11.7562H1.1156V8.13745H19.8375V11.7562H19.5375C18.8719 11.7562 18.3281 12.3 18.3281 12.9656C18.3281 13.6312 18.8719 14.175 19.5375 14.175H19.8375V17.7937ZM1.7156 17.1937H19.2375V14.7468C18.3844 14.6062 17.7281 13.8562 17.7281 12.9656C17.7281 12.0656 18.3844 11.325 19.2375 11.1843V8.73745H1.7156V11.1843C2.56873 11.325 3.22498 12.075 3.22498 12.9656C3.22498 13.8656 2.56873 14.6062 1.7156 14.7468V17.1937Z" fill="white"/>
<path id="Vector_2" d="M10.4719 16.2844C10.3031 16.2844 10.1719 16.1531 10.1719 15.9844V9.94685C10.1719 9.7781 10.3031 9.64685 10.4719 9.64685C10.6406 9.64685 10.7719 9.7781 10.7719 9.94685V15.9844C10.7719 16.1531 10.6406 16.2844 10.4719 16.2844Z" fill="white"/>
<path id="Vector_3" d="M19.6687 16.1531L19.6031 15.5625L22.2281 15.2812L21.9656 12.8531C21.5906 12.8344 21.2343 12.6937 20.9437 12.45C20.5687 12.1406 20.3343 11.7094 20.2875 11.2312C20.2312 10.7531 20.3718 10.2844 20.6812 9.90935C20.925 9.60935 21.2437 9.4031 21.6 9.29998L21.3375 6.87185L3.60933 8.74685L3.5437 8.15623L21.8624 6.22498L22.2468 9.82498L21.9468 9.8531C21.6281 9.8906 21.3375 10.05 21.1312 10.2937C20.9249 10.5469 20.8312 10.8562 20.8687 11.1844C20.9062 11.5125 21.0562 11.8031 21.3093 12C21.5625 12.2062 21.8718 12.3 22.2 12.2625L22.5 12.2344L22.8843 15.8343L19.6687 16.1531Z" fill="white"/>
</g>
</g>
</svg>
